<?xml version="1.0" encoding="UTF-8"?>
<!-- Created with Inkscape (http://www.inkscape.org/) -->
<svg width="64mm" height="64mm" version="1.1" viewBox="0 0 64 64" xmlns="http://www.w3.org/2000/svg" xmlns:cc="http://creativecommons.org/ns#" xmlns:dc="http://purl.org/dc/elements/1.1/" xmlns:rdf="http://www.w3.org/1999/02/22-rdf-syntax-ns#">
 <metadata>
  <rdf:RDF>
   <cc:Work rdf:about="">
    <dc:format>image/svg+xml</dc:format>
    <dc:type rdf:resource="http://purl.org/dc/dcmitype/StillImage"/>
    <dc:title/>
   </cc:Work>
  </rdf:RDF>
 </metadata>
 <g transform="translate(0,-233)">
  <path d="m21.4 294c-7.5-2.85-10.6-5.97-12.9-12.8-2.41-7.35-2.09-11.6 0.59-16.9 0.922-2.51 1.25-3.58 1.79-4.21 1.03-1.2 1.73e-4 -2.7 0.226-4.07 1.27-7.73 5.49-14 10.8-17.5 5.51-3.65 14.6-4.91 19.8-2.75 4.22 1.75 9.94 8.02 12.6 13.9 1.08 2.33 2.95 4.9 3.36 5.22 1.07 4.64-1.09 4.27-0.0931 5.49 1.93 2.37 1.93 8.63 2.03 13.6 0.155 7.72-0.108 8.7-3.44 12.8-5.78 7.17-11.3 9.71-20.9 9.6-4.92-0.0554-10.4-0.953-13.9-2.26zm27.3-40.9c0-2.41-3.51-7.95-6.55-10.3-2.18-1.72-4.79-2.44-8.81-2.44-5.2 0-6.17 0.461-10.9 5.22-8.34 8.34-7.8 8.78 10.5 8.78 10.2 0 15.8-0.43 15.8-1.23z" fill="#fff" stroke-width="1.17"/>
  <g stroke-width="1.17">
   <path d="m19.2 256c-0.149-4e-3 -0.405 0.012-0.469 0.012h-4.76c-0.0462 0-0.565-7e-3 -0.571 0-0.0448 0.0449 0.0448 0.145 0 0.19-0.0389 0.0389-0.495-0.0377-0.571 0-0.0802 0.0401-0.101 0.191-0.191 0.191-0.0714 0.0714-0.125 0.12-0.176 0.164-0.0049 9e-3 -0.0085 0.0201-0.0144 0.026-0.0053 5e-3 -0.0133 4e-3 -0.0199 7e-3 -0.0909 0.0766-0.138 0.0999-0.167 0.102 0.0094 0.0317 0.0162 0.0627-0.0035 0.0823-0.0897 0.0897-0.29-0.0897-0.38 0-0.0448 0.0449 0.0448 0.145 0 0.19-0.0951 0.0952-0.476-0.0952-0.571 0-0.0448 0.0449 0 0.127 0 0.191 0 0.485 0.222 0.253 0.381 0.571 0.28 0.56-0.44-0.25 0.191 0.381 0.0284 0.0567-0.0448 0.145 0 0.19 0.0448 0.0449 0.145-0.0449 0.19 0s-0.0448 0.146 0 0.191c0.0448 0.0449 0.133-0.0284 0.19 0 0.0802 0.0401 0.11 0.15 0.191 0.19 0.05 0.025 0.662 0 0.761 0 0.689 0 0.0756 0.0761 0.761-0.381 0.0528-0.0352 0.127 0 0.191 0h6.66c0.0634 0 0.145 0.0449 0.19 0s-0.0448-0.145 0-0.19c0.0448-0.0449 0.127 0 0.19 0h9.32c0.0634 0 0.146-0.0449 0.191 0s-0.0448 0.145 0 0.19c0.0448 0.0449 0.127 0 0.19 0 0.184 0 1.09-0.0283 1.14 0 0.205 0.102 0.366 0.278 0.571 0.381 0.0663 0.0332 1 0 1.14 0 0.549 0 0.253 0.0153 0.952 0.19 0.185 0.0462 0.842-0.0547 0.951 0 0.0802 0.0401 0.11 0.151 0.19 0.191 0.0579 0.0289 0.485 0 0.571 0h2.66c0.161 0 0.659 0.0341 0.761 0 0.0851-0.0284 0.11-0.151 0.19-0.191 0.131-0.0657 0.885 0.0668 0.952 0 0.0448-0.0449-0.0448-0.145 0-0.19 0.0521-0.052 0.657 0.0516 0.761 0 0.0802-0.0401 0.106-0.162 0.191-0.19 0.12-0.0401 0.253 0 0.38 0 0.0634 0 0.134 0.0284 0.191 0 0.0802-0.0401 0.11-0.151 0.19-0.191 0.0579-0.0289 0.486 0 0.571 0h1.33c0.0634 0 0.133-0.0284 0.19 0 0.0802 0.0401 0.11 0.151 0.19 0.191 0.12 0.06 0.832-0.06 0.952 0 0.0802 0.0401 0.11 0.15 0.19 0.19 0.113 0.0567 0.291-0.0897 0.381 0 0.0448 0.0449-0.0448 0.145 0 0.19 0.0448 0.0449 0.133-0.0284 0.19 0 0.16 0.0803 0.22 0.301 0.381 0.381 0.0567 0.0284 0.134-0.0284 0.191 0 0.0802 0.0401 0.11 0.151 0.19 0.191 0.0567 0.0284 0.145-0.0449 0.19 0s-0.0448 0.145 0 0.19c0.0448 0.0449 0.134-0.0284 0.191 0 0.0802 0.0401 0.11 0.15 0.19 0.19 0.0567 0.0284 0.146-0.0449 0.191 0s-0.0448 0.146 0 0.191c0.0448 0.0449 0.145-0.0449 0.19 0s-0.0284 0.133 0 0.19c0.0401 0.0803 0.15 0.111 0.19 0.191 0.0284 0.0567-0.0448 0.145 0 0.19 0.0448 0.0449 0.146-0.0449 0.191 0 0.0448 0.0449-0.0448 0.146 0 0.191 0.0448 0.0449 0.145-0.0449 0.19 0s-0.0448 0.145 0 0.19c0.0448 0.0449 0.146-0.0449 0.191 0s-0.0448 0.145 0 0.19c0.0448 0.0449 0.145-0.0449 0.19 0s-0.0448 0.146 0 0.191c0.0448 0.0449 0.146-0.0449 0.191 0 0.0448 0.0449-0.0448 0.145 0 0.19 0.254 0.254 0.19-0.317 0.19 0.191 0.0401 0.0803 0.1 0.19 0.19 0.19 0 0.0462-0.0061 0.564 0 0.571 0.132 0.132 0.185 0.0357 0.204-0.0466-0.0036 0.0389-5e-3 0.152-0.0076 0.241-0.0023-8.5e-4 -0.0035-4e-3 -0.0062-4e-3 -0.0634 0 0 0.126 0 0.19v0.191c-0.0634 0 0 0.126 0 0.19v0.191c0 0.446 0.0444-0.0903-0.191 0.38-0.0284 0.0568 0 0.127 0 0.191v1.14c0 0.0634 0.0284 0.134 0 0.191-0.0401 0.0803-0.15 0.11-0.19 0.19-0.0516 0.103 0.0521 0.709 0 0.761-0.0448 0.0449-0.145-0.0449-0.19 0-0.0521 0.052 0.0516 0.658 0 0.761-0.0401 0.0803-0.151 0.11-0.191 0.19-0.0578 0.116 0.0578 1.03 0 1.14-0.0401 0.0803-0.15 0.11-0.19 0.19-0.0761 0.152 0.0761 0.418 0 0.571-0.0401 0.0803-0.151 0.111-0.191 0.191-0.0598 0.12 0.0598 0.641 0 0.761-0.0401 0.0803-0.15 0.11-0.19 0.191-0.0516 0.103 0.0521 0.709 0 0.761-0.0448 0.0449-0.146-0.0449-0.191 0-0.0951 0.0952 0.0951 0.476 0 0.571-0.0448 0.0449-0.145-0.0449-0.19 0s0.0448 0.145 0 0.19c-0.0448 0.0449-0.145-0.0449-0.19 0-0.0897 0.0897 0.0897 0.291 0 0.381-0.0448 0.0449-0.146-0.0449-0.191 0-0.0448 0.0449 0.0448 0.146 0 0.191-0.0448 0.0449-0.145-0.0449-0.19 0-0.0458 0.0458 0.0458 0.715 0 0.761-0.0449 0.0449-0.146-0.0449-0.191 0-0.0897 0.0897 0.0897 0.291 0 0.381-0.0448 0.0449-0.145-0.0449-0.19 0-0.0458 0.0458 0.0458 0.716 0 0.761-0.0448 0.0449-0.145-0.0449-0.19 0-0.0061 7e-3 0 0.524 0 0.571v0.19c0 0.0634 0.0448 0.146 0 0.191-0.0448 0.0449-0.146-0.0449-0.191 0s0 0.126 0 0.19c-0.0634 0-0.145-0.0449-0.19 0-0.0897 0.0897 0.0897 0.291 0 0.381-0.0448 0.0449-0.134-0.0284-0.191 0-0.0802 0.0401-0.11 0.151-0.19 0.191-0.0567 0.0284-0.146-0.0449-0.191 0s0.0448 0.145 0 0.19c-0.0448 0.0449-0.133-0.0284-0.19 0-0.0802 0.0401-0.11 0.15-0.19 0.19-0.0567 0.0284-0.134-0.0284-0.191 0-0.0802 0.0401-0.11 0.151-0.19 0.191-0.0567 0.0284-0.146-0.0449-0.191 0-0.0448 0.0449 0.0448 0.145 0 0.19-0.0897 0.0897-0.291-0.0897-0.381 0-0.0448 0.0449 0.0448 0.146 0 0.191-0.0448 0.0449-0.133-0.0284-0.19 0-0.0802 0.0401-0.127 0.126-0.19 0.19-0.0634 0-0.134-0.0284-0.191 0-0.0802 0.0401-0.11 0.151-0.19 0.191-0.0567 0.0284-0.134-0.0284-0.191 0-0.0802 0.0401-0.11 0.15-0.19 0.19-0.0567 0.0284-0.134-0.0284-0.191 0-0.0802 0.0401-0.11 0.15-0.19 0.19-0.0567 0.0284-0.145-0.0449-0.19 0s0.0448 0.146 0 0.191c-0.0897 0.0897-0.291-0.0897-0.381 0-0.0448 0.0449 0.0448 0.145 0 0.19-0.0295 0.0295-0.497-0.0247-0.571 0-0.135 0.0449-0.245 0.146-0.38 0.191-0.0602 0.02-0.134-0.0284-0.191 0-0.0802 0.0401-0.11 0.15-0.19 0.19-0.0567 0.0284-0.146-0.0449-0.191 0s0.0448 0.146 0 0.191c-0.0448 0.0449-0.133-0.0284-0.19 0-0.0802 0.0401-0.11 0.15-0.19 0.19-0.0567 0.0284-0.134-0.0284-0.191 0-0.0802 0.0401-0.11 0.15-0.19 0.19-0.113 0.0567-0.267-0.0567-0.381 0-0.0802 0.0401-0.11 0.151-0.191 0.191-0.0567 0.0284-0.133-0.0284-0.19 0-0.0802 0.0401-0.11 0.15-0.19 0.19-0.0579 0.0289-0.486 0-0.571 0h-1.52c-0.0634 0-0.146-0.0449-0.191 0s0.0448 0.146 0 0.191c-0.0897 0.0897-0.29-0.0897-0.38 0-0.0448 0.0449 0.0448 0.145 0 0.19-0.0897 0.0897-0.291-0.0897-0.381 0-0.0448 0.0449 0.0448 0.145 0 0.19-0.0449 0.0449-0.131-0.02-0.191 0-0.135 0.0449-0.246 0.146-0.381 0.191-0.0602 0.02-0.133-0.0284-0.19 0-0.0802 0.0401-0.11 0.15-0.19 0.19-0.0567 0.0284-0.127 0-0.191 0h-1.71c-0.127 0-0.26-0.0401-0.38 0-0.269 0.0897-0.492 0.291-0.761 0.381-0.0636 0.0212-0.131 0.0203-0.199 0.0145 0.0044-4e-3 0.0082-8e-3 0.0082-0.0145 0-0.0635-0.127 0-0.19 0h-0.19c-0.159 0-0.807-0.0362-0.952 0-0.138 0.0344-0.241 0.163-0.38 0.191-0.222 0.0445-0.849 0-1.14 0-0.0634 0-0.145-0.0449-0.19 0s0.0448 0.145 0 0.19c-0.0458 0.0458-0.716-0.0458-0.761 0-0.0448 0.0449 0.0448 0.145 0 0.19-0.0389 0.0389-0.495-0.0377-0.571 0-0.0802 0.0401-0.11 0.151-0.191 0.191-0.113 0.0567-0.267-0.0567-0.381 0-0.0802 0.0401-0.11 0.15-0.19 0.19-0.12 0.06-0.831-0.06-0.951 0-0.56 0.28 0.296 0.191-0.571 0.191-0.0462 0-0.565-7e-3 -0.571 0-0.0448 0.0449 0.0448 0.145 0 0.19-0.0448 0.0449-0.133-0.0284-0.19 0-0.228 0.114-0.342 0.457-0.571 0.571-0.0567 0.0284-0.134-0.0284-0.191 0-0.0802 0.0401-0.11 0.151-0.19 0.191-0.0567 0.0284-0.146-0.0449-0.191 0s0.0448 0.145 0 0.19c-0.0448 0.0449-0.127 0-0.19 0h-9.7c-0.0452 0-0.718-0.0214-0.761 0-0.0802 0.0401-0.11 0.151-0.191 0.191-0.0688 0.0344-0.819 0-0.951 0-0.0634 0-0.145-0.0449-0.19 0s0.0448 0.145 0 0.19c-0.0897 0.0897-0.291-0.0897-0.381 0-0.0448 0.0449 0.0448 0.146 0 0.191-0.0448 0.0449-0.146-0.0449-0.191 0s0.0448 0.145 0 0.19c-0.0448 0.0449-0.145-0.0449-0.19 0-0.0448 0.0449 0.0284 0.133 0 0.19-0.0253 0.0506-0.52 0.546-0.571 0.571-0.0567 0.0284-0.146-0.0449-0.191 0s0.0448 0.145 0 0.19c-0.0084 8e-3 -0.0192 0.0106-0.0302 0.0119 2.18 3.93 5.35 6.23 11 8.37 3.43 1.3 8.95 2.2 13.9 2.26 9.59 0.108 15.1-2.43 20.9-9.6 3.34-4.14 3.6-5.12 3.44-12.8-0.0987-4.92-0.102-11.2-2.03-13.6-0.659-0.811 0.0655-0.927 0.316-2.27-0.233-0.0413 0.202 0.511-0.462-0.152h-2.85c-0.08 0-1.09 0.0283-1.14 0-0.0802-0.0401-0.105-0.162-0.19-0.19-0.0871-0.0291-0.845 0-0.951 0h-16.7c0-0.0634-0.127 0-0.19 0-0.179 0-0.843 0.0361-0.951 0-0.0851-0.0284-0.103-0.173-0.191-0.191-0.311-0.0623-0.634 0-0.951 0h-11c-0.127 0-0.26 0.0401-0.381 0-0.135-0.0449-0.246-0.145-0.381-0.19-0.153-0.0511-0.64 0.0608-0.761 0-0.0802-0.0401-0.11-0.151-0.19-0.191-0.121-0.0605-0.794 0.0526-0.951 0-0.0851-0.0284-0.11-0.15-0.191-0.19-0.0145-7e-3 -0.052-0.0106-0.102-0.012zm38.2 0.964c0.0073 0 0.0187-4e-3 0.0274-5e-3 -0.0248-5e-3 -0.0414-8e-3 -0.0274 5e-3zm0.0274-5e-3c0.0548 0.0133 0.163 0.0493 0.163 5e-3 0-0.0562-0.0957-0.0162-0.163-5e-3zm-45.1-0.267c-0.0108-0.0362-0.021-0.0725-0.0062-0.0981-0.0294 0.0592-0.0324 0.101 0.0062 0.0981zm-0.0062-0.0981c0.0019-4e-3 2e-3 -7e-3 0.0041-0.0106-3.91e-4 3.6e-4 -9.89e-4 3e-4 -0.0013 6.8e-4 -0.0027 3e-3 -9.62e-4 7e-3 -0.0028 0.0106zm0.0041-0.0106c0.04-0.0373 0.12 0.0218 0.169 7e-3 0.0092-8e-3 0.0244-0.0236 0.0343-0.0323 0.032-0.0583 0.0406-0.164-0.0144-0.164-0.0564 0-0.143 0.103-0.189 0.189zm0.379-0.189c0.0188-0.0189 0.0097-0.0552-0.0013-0.0912-0.0153 0.046-0.0293 0.0912 0.0013 0.0912zm-0.0013-0.0912c0.0163-0.049 0.0341-0.0994 0.0013-0.0994-0.0369 0-0.0167 0.0495-0.0013 0.0994z" fill="#e6e6e6"/>
   <path d="m18.2 257c-0.051-0.012-0.161 0.0357-0.224 0.0357h-0.251c-0.588 0 0.119-0.0596-0.501 0.25-0.259 0.13-0.593-0.228-0.752 0.251-0.0274 0.0822-0.0265 0.169-0.0192 0.257-0.0474 0.0279 0.0192 0.17 0.0192 0.245v0.753c-0.0019 0.221-0.0054 0.496 0 0.501 0.0591 0.0591 0.191-0.0592 0.25 0 0.0591 0.0592-0.0591 0.192 0 0.251 0.0591 0.0591 0.192-0.0592 0.251 0 0.0591 0.0591-0.0591 0.191 0 0.25 0.167 0.167 0.335-0.167 0.501 0 0.0591 0.0591-0.0591 0.192 0 0.251 0.118 0.118 0.384-0.118 0.502 0 0.0591 0.0592-0.0591 0.192 0 0.251 0.0081 8e-3 0.692 0 0.752 0h2.01c0.113 0 0.676-0.0382 0.752 0 0.106 0.053 0.145 0.198 0.251 0.251 0.0748 0.0374 0.167 0 0.25 0h1.51c0.0836 0 0.176-0.0374 0.25 0 0.106 0.0528 0.145 0.198 0.251 0.25 0.152 0.0762 1.35-0.0762 1.5 0 0.106 0.0528 0.145 0.198 0.251 0.251 0.0763 0.0382 0.639 0 0.752 0h17.3c0.174 0 1.16-0.0454 1.25 0 0.106 0.0528 0.145 0.198 0.251 0.251 0.066 0.0329 0.872 0 1 0h0.25c0 0.0836 0.167 0 0.251 0h2.26c0.113 0 0.677-0.0382 0.753 0 0.106 0.0528 0.145 0.198 0.25 0.25 0.201 0.1 0.552-0.1 0.752 0 0.106 0.053 0.145 0.198 0.251 0.251 0.0748 0.0374 0.176-0.0374 0.251 0 0.106 0.0528 0.145 0.198 0.251 0.251 0.0748 0.0374 0.191-0.0591 0.25 0 0.0591 0.0591-0.0591 0.192 0 0.251 0.0591 0.0591 0.192-0.0592 0.251 0 0.0591 0.0591-0.0374 0.176 0 0.25 0.0529 0.106 0.251 0.133 0.251 0.251 0.0591 0.0592-0.0374 0.176 0 0.251 0.0529 0.106 0.197 0.145 0.25 0.25 0.0748 0.15-0.118 0.384 0 0.502 0.0591 0.0592 0.192-0.0591 0.251 0 0.125 0.125-0.125 0.627 0 0.752 0.0591 0.0591 0.192-0.0592 0.251 0 0.118 0.118-0.0748 0.352 0 0.501 0.0529 0.106 0.198 0.145 0.251 0.251 0.0748 0.15-0.0748 0.353 0 0.502 0.0529 0.106 0.197 0.145 0.25 0.25 0.1 0.201-0.1 0.552 0 0.752 0.0529 0.106 0.198 0.145 0.251 0.251 0.0382 0.0763 0 0.639 0 0.752v3.01c0 0.0836 0.0591 0.192 0 0.251-0.0591 0.0592-0.192-0.0591-0.251 0-0.0591 0.0592 0 0.167 0 0.25 0 0.174 0.0454 1.16 0 1.25-0.0529 0.106-0.197 0.145-0.25 0.251-0.0748 0.15 0.118 0.383 0 0.501-0.0591 0.0591-0.192-0.0591-0.251 0-0.118 0.118 0.118 0.383 0 0.501-0.0591 0.0591-0.192-0.0592-0.251 0-0.118 0.118 0.0748 0.353 0 0.502-0.323 0.645-0.275-0.0532-0.257 0.503-0.0446 8e-3 -0.0133 0.0818 0.0041 0.153 4.84e-4 0.0451 2e-3 0.0406 2e-3 0.096-0.0529 0.106-0.167 0.167-0.25 0.251-0.0836 0.0836-0.145 0.197-0.251 0.25-0.0748 0.0374-0.192-0.0592-0.251 0-0.0591 0.0591 0.0591 0.192 0 0.251-0.0591 0.0591-0.191-0.0591-0.25 0-0.0591 0.0592 0.0374 0.176 0 0.251-0.0529 0.106-0.198 0.145-0.251 0.251-0.0374 0.0749 0.0591 0.191 0 0.25s-0.192-0.0592-0.251 0c-0.0591 0.0592 0.0374 0.176 0 0.251-0.0529 0.106-0.198 0.145-0.251 0.251-0.0374 0.0747 0.0591 0.191 0 0.25-0.0591 0.0592-0.191-0.0591-0.25 0-0.0591 0.0592 0.0591 0.192 0 0.251-0.0591 0.0592-0.192-0.0591-0.251 0-0.118 0.118 0.118 0.384 0 0.502-0.0591 0.0591-0.192-0.0592-0.251 0-0.118 0.118 0.118 0.383 0 0.501-0.0591 0.0591-0.191-0.0591-0.25 0-0.118 0.118 0.118 0.383 0 0.501-0.0591 0.0591-0.192-0.0592-0.251 0-0.0591 0.0591 0.0591 0.192 0 0.251-0.0591 0.0591-0.192-0.0591-0.251 0-0.0591 0.0591 0.0591 0.192 0 0.251-0.0591 0.0592-0.192-0.0591-0.251 0-0.0591 0.0591 0.0374 0.176 0 0.251-0.0529 0.106-0.197 0.145-0.25 0.25-0.0374 0.0749 0.0591 0.192 0 0.251-0.0591 0.0591-0.176-0.0374-0.251 0-0.212 0.106-0.29 0.396-0.501 0.501-0.0748 0.0374-0.192-0.0592-0.251 0-0.0591 0.0591 0.0591 0.192 0 0.251-0.118 0.118-0.384-0.118-0.502 0-0.0591 0.0592 0.0591 0.192 0 0.251-0.118 0.118-0.383-0.118-0.501 0-0.0591 0.0591 0.0591 0.192 0 0.251-0.118 0.118-0.383-0.118-0.501 0-0.0591 0.0592 0.0374 0.176 0 0.25-0.201 0.403-0.301 0.0995-0.502 0.502-0.0374 0.0747 0.0591 0.191 0 0.25-0.0591 0.0592-0.192-0.0591-0.251 0-0.15 0.15 0.272 0.502-0.25 0.502-0.118 0.118-0.353-0.0749-0.502 0-0.106 0.0528-0.145 0.198-0.25 0.251-0.15 0.0747-0.384-0.118-0.502 0-0.0591 0.0591 0.0591 0.191 0 0.25-0.118 0.118-0.352-0.0749-0.501 0-0.106 0.0528-0.145 0.198-0.251 0.251-0.0748 0.0374-0.192-0.0591-0.251 0-0.0591 0.0592 0.0591 0.192 0 0.251-0.118 0.118-0.383-0.118-0.501 0-0.0591 0.0591 0.0591 0.191 0 0.25-0.118 0.118-0.384-0.118-0.502 0-0.0591 0.0591 0.0591 0.192 0 0.251-0.118 0.118-0.383-0.118-0.501 0-0.0591 0.0591 0.0591 0.192 0 0.251-0.118 0.118-0.352-0.0747-0.501 0-0.106 0.053-0.145 0.198-0.251 0.251-0.359 0.18-0.29 0.0467-0.221-0.0412-0.0398 0.0447-0.102 0.112-0.281 0.292-0.201 0.1-0.552-0.1-0.752 0-0.483 0.242-0.104 0.752-1 0.752-0.0045 0-0.0044-3e-3 -0.0082-3e-3 0.0121 0.21 0.0416 0.471 0.0082 0.505-0.0591 0.0592-0.191-0.0591-0.25 0-0.0591 0.0591 0.0591 0.192 0 0.251-0.118 0.118-0.384-0.118-0.502 0-0.334 0.334 0.419 0.25-0.25 0.25-0.131 0-0.938-0.0329-1 0-0.106 0.0528-0.145 0.198-0.251 0.251-0.136 0.0681-0.935-0.0686-1 0-0.0591 0.0591 0.0591 0.192 0 0.251-0.125 0.125-0.627-0.125-0.752 0-0.0591 0.0591 0.0591 0.191 0 0.25-0.118 0.118-0.383-0.118-0.501 0-0.0591 0.0592 0.0591 0.192 0 0.251-0.118 0.118-0.343-0.0528-0.502 0-0.177 0.0592-0.324 0.192-0.501 0.251-0.157 0.0524-0.802 0-1 0h-2.26c-0.131 0-0.937-0.0331-1 0-0.106 0.0528-0.145 0.198-0.251 0.251-0.159 0.0795-1.09-0.0815-1.25 0-0.106 0.0528-0.145 0.197-0.25 0.25-0.0763 0.0382-0.64 0-0.753 0h-2.01c-0.113 0-0.676-0.0382-0.752 0-0.106 0.0528-0.145 0.198-0.251 0.251-0.0748 0.0374-0.176-0.0374-0.251 0-0.212 0.106-0.29 0.396-0.501 0.501-0.0748 0.0374-0.192-0.0592-0.251 0-0.0591 0.0591 0.0591 0.192 0 0.251-0.0591 0.0591-0.192-0.0591-0.251 0-0.118 0.118 0.118 0.384 0 0.502-0.0591 0.0592-0.191-0.0591-0.25 0-0.118 0.118 0.118 0.383 0 0.501-0.0591 0.0591-0.192-0.0592-0.251 0-0.0591 0.0591 0 0.167 0 0.251v1.5c0 0.0836-0.0374 0.176 0 0.251 0.0529 0.106 0.198 0.145 0.251 0.25 0.0374 0.0749-0.0591 0.192 0 0.251 0.0591 0.0592 0.191-0.0591 0.25 0 0.0591 0.0592-0.0591 0.192 0 0.251 0.0591 0.0591 0.192-0.0591 0.251 0 0.0532 0.0531-0.0311 0.163-0.0069 0.228 0.0313 0.0106 0.0645 0.0204 0.096 0.0309 0.0588-0.0149 0.125-0.0455 0.162-8e-3 0.0176 0.0175 0.0195 0.0408 0.0172 0.0658 3.44 1.1 8.37 1.84 12.8 1.89 9.59 0.108 15.1-2.43 20.9-9.6 3.34-4.14 3.6-5.12 3.45-12.8-0.0942-4.7-0.476-9.47-0.981-13.1-0.0307 7e-3 -0.0591 9e-3 -0.0789-0.0106-0.0823-0.0823 0.0038-0.235 0.0261-0.36-0.0061-0.0429-0.0123-0.0864-0.0185-0.129-0.0031-4e-3 -0.0037-9e-3 -0.0076-0.0133-0.0591-0.0592-0.192 0.0591-0.251 0-0.0081-8e-3 0-0.692 0-0.752 0-1 0.0834 0.419-0.251-0.25-0.0411-0.0822-0.0374-0.176-0.0254-0.27 0.0058 0.0106 0.0136 0.0192 0.0254 0.0192 0.0836 0 0.0374-0.176 0-0.251 0-0.0138-0.0028-0.0133-0.0062-8e-3 -0.0563-0.0993-0.193-0.141-0.245-0.243-0.0374-0.0747 0.0748-0.213 0-0.25-0.0798-0.0398-0.169-0.0372-0.261-0.026-0.0373-0.0341-0.169 0.026-0.24 0.026h-0.752c-0.0608 0-0.744-8e-3 -0.752 0-0.0591 0.0591 0.0748 0.213 0 0.25-0.0822 0.041-0.175 0.0374-0.27 0.0254 0.0109-5e-3 0.0185-0.0138 0.0185-0.0254 0-0.0836-0.167 0-0.251 0h-1.76c-0.0836 0-0.191-0.0592-0.25 0-0.0591 0.0591 0.0591 0.192 0 0.251-0.0258 0.0259-1.19-0.0208-1.25 0-0.112 0.0374-0.145 0.198-0.251 0.251-0.0995 0.0498-0.701-0.0512-0.752 0-0.0591 0.0592 0.0591 0.192 0 0.251-0.125 0.125-0.627-0.125-0.752 0-0.0591 0.0591 0.0591 0.191 0 0.25-0.118 0.118-0.352-0.0747-0.501 0-0.106 0.0528-0.145 0.198-0.251 0.251-0.0748 0.0374-0.167 0-0.251 0h-16.6c0-0.0836-0.167 0-0.251 0h-0.25c-0.0836 0-0.176-0.0374-0.251 0-0.106 0.0528-0.145 0.198-0.251 0.251-0.107 0.0536-1.15 0-1.25 0h-7.27c-0.258 0-1.68 0.037-1.76 0-0.106-0.0528-0.145-0.198-0.251-0.251-0.0995-0.0498-0.701 0.0512-0.752 0-0.0591-0.0592 0.0591-0.192 0-0.251-0.125-0.125-0.627 0.125-0.752 0-0.0591-0.0591 0.0591-0.191 0-0.25-0.296-0.296-1.33 1.18-1.25 0 0.159-0.636 0.242-0.934 0.292-1.1-0.0988 0.267-0.292 0.597-0.292-0.652h-0.25c0-0.021-0.0105-0.0317-0.0274-0.0357zm0.278 0.0357c0.0082 0 0.018-4e-3 0.0267-5e-3 -0.0161-0.0216-0.0267-0.0268-0.0267 5e-3zm0.0267-5e-3c0.0442 0.0593 0.138 0.255 0.224 0.255 0.0836 0 0.0591-0.191 0-0.25-0.0533-0.0534-0.145-0.0138-0.224-5e-3zm0.265 0.657c0.06-0.162 0.0738-0.252 0 0zm19.8 28.4c-0.0016-0.028-0.0041-0.0591-0.0048-0.0844-0.0303 0.0458-0.0414 0.0799 0.0048 0.0844zm-0.0048-0.0844c0.0703-0.106 0.264-0.287 0.264-0.414 0-0.118-0.198 0.145-0.251 0.251-0.013 0.026-0.0152 0.0875-0.013 0.163zm2.05-0.957c0.0549-0.0617 0.0423-0.0536 0 0zm4.74-1.97c0.0244-0.0244 0.0122-0.0718-0.0021-0.119-0.02 0.0601-0.0381 0.119 0.0021 0.119zm-0.0021-0.119c0.0216-0.0652 0.0455-0.132 0.0021-0.132-0.049 0-0.0224 0.066-0.0021 0.132zm7.03-20.2c-0.0247-0.0247-0.0728-0.0133-0.12 1e-3 0.0607 0.0202 0.12 0.0392 0.12-1e-3zm-0.12 1e-3c-0.0646-0.0215-0.131-0.0445-0.131-1e-3 0 0.0487 0.065 0.0216 0.131 1e-3z" fill="#ccc"/>
   <path d="m30.3 238c-0.0373 1e-3 -0.0656 4e-3 -0.0765 9e-3 -0.0604 0.0302-0.0832 0.113-0.144 0.143-0.0568 0.0284-0.401-0.0293-0.43 0-0.0338 0.0338 0.0338 0.11 0 0.144-0.0717 0.0717-0.358-0.0717-0.43 0-0.0338 0.0338 0.0338 0.109 0 0.143-0.0676 0.0676-0.201-0.0427-0.287 0-0.0604 0.0302-0.0832 0.113-0.144 0.144-0.0427 0.0214-0.109-0.0338-0.143 0-0.0338 0.0338 0.0338 0.109 0 0.143-0.0293 0.0293-0.373-0.0284-0.43 0-0.0604 0.0302-0.0832 0.113-0.144 0.143-0.0855 0.0427-0.219-0.0676-0.287 0-0.0338 0.0338 0.0338 0.11 0 0.144-0.0293 0.0293-0.373-0.0284-0.43 0-0.0604 0.0302-0.0827 0.113-0.143 0.143-0.0855 0.0427-0.201-0.0427-0.287 0-0.0604 0.0302-0.0832 0.113-0.144 0.144-0.0855 0.0427-0.219-0.0676-0.286 0-0.0338 0.0338 0.0338 0.109 0 0.143-0.0676 0.0676-0.219-0.0676-0.287 0-0.0338 0.0338 0.0338 0.109 0 0.143-0.0676 0.0676-0.201-0.0428-0.287 0-0.0604 0.0302-0.0832 0.113-0.144 0.144-0.0427 0.0214-0.1-0.0214-0.143 0-0.0604 0.0302-0.0827 0.113-0.143 0.143-0.0427 0.0214-0.101-0.0214-0.144 0-0.0604 0.0302-0.0827 0.113-0.143 0.144-0.0427 0.0214-0.11-0.0338-0.144 0s0.0338 0.109 0 0.143-0.1-0.0214-0.143 0c-0.0604 0.0302-0.0832 0.113-0.144 0.144-0.0427 0.0214-0.109-0.0338-0.143 0s0.0338 0.109 0 0.143c-0.0338 0.0338-0.109-0.0338-0.143 0-0.0338 0.0338 0.0338 0.109 0 0.143s-0.11-0.0338-0.144 0 0.0338 0.11 0 0.144-0.109-0.0338-0.143 0 0.0338 0.109 0 0.143-0.11-0.0338-0.144 0 0.0338 0.11 0 0.144-0.1-0.0214-0.143 0c-0.121 0.0604-0.166 0.226-0.287 0.287-0.0427 0.0214-0.109-0.0338-0.143 0s0.0338 0.109 0 0.143-0.11-0.0338-0.144 0 0.0214 0.1 0 0.143c-0.0302 0.0605-0.113 0.0831-0.143 0.144-0.0214 0.0427 0.0338 0.109 0 0.143s-0.11-0.0338-0.144 0 0.0338 0.11 0 0.144-0.109-0.0338-0.143 0 0.0338 0.109 0 0.143-0.109-0.0338-0.143 0 0.0338 0.11 0 0.144-0.11-0.0338-0.144 0 0.0338 0.109 0 0.143c-0.191 0.191-0.143-0.239-0.143 0.143-0.298 0.597 0.0098-0.153-0.287 0.144-0.0338 0.0338 0.0338 0.109 0 0.143s-0.101-0.0214-0.144 0c-0.0604 0.0302-0.0954 0.0959-0.143 0.144-0.0478 0.0478-0.0954 0.0953-0.143 0.143-0.0755 0.0755-0.392 0.353-0.43 0.43-0.0214 0.0427 0.0338 0.11 0 0.144s-0.109-0.0338-0.143 0c-0.0717 0.0717 0.0717 0.358 0 0.43-0.0338 0.0338-0.11-0.0338-0.144 0-0.0293 0.0293 0.0284 0.373 0 0.43-0.0302 0.0605-0.113 0.0833-0.143 0.144-0.0214 0.0428 0.0338 0.109 0 0.143s-0.109-0.0338-0.143 0 0.0214 0.101 0 0.144c-0.0302 0.0605-0.113 0.0826-0.144 0.143-0.0214 0.0427 0.0338 0.109 0 0.143s-0.109-0.0338-0.143 0c-0.0338 0.0338 0.0338 0.11 0 0.144s-0.11-0.0338-0.144 0 0.0214 0.1 0 0.143c-0.0604 0.121-0.226 0.166-0.287 0.287-0.0214 0.0427 0.0338 0.11 0 0.144s-0.1-0.0214-0.143 0c-0.597 0.298 0.153-0.0104-0.143 0.286-0.0338 0.0338-0.101-0.0214-0.144 0-0.0604 0.0302-0.0954 0.0959-0.143 0.144-0.0478 0.0478-0.113 0.0827-0.144 0.143-0.0214 0.0427 0.0338 0.11 0 0.144s-0.109-0.0338-0.143 0c-0.0676 0.0676 0.0676 0.219 0 0.287-0.0338 0.0338-0.109-0.0338-0.143 0-0.0293 0.0293 0.0284 0.373 0 0.43-0.0604 0.121-0.226 0.166-0.287 0.287-0.0214 0.0428 0.0338 0.109 0 0.143s-0.11-0.0338-0.144 0 0.0338 0.11 0 0.144-0.109-0.0338-0.143 0c-0.0676 0.0676 0.0676 0.219 0 0.286-0.0338 0.0338-0.11-0.0338-0.144 0s0.0338 0.11 0 0.144-0.109-0.0338-0.143 0c-0.0676 0.0676 0.0676 0.219 0 0.287-0.0338 0.0338-0.109-0.0338-0.143 0-0.0676 0.0676 0.0676 0.219 0 0.286-0.0338 0.0338-0.11-0.0338-0.144 0-0.0293 0.0293 0.0284 0.374 0 0.43-0.0302 0.0605-0.113 0.0827-0.143 0.143-0.0274 0.0548-0.0048 0.339 0.0062 0.57 0.796-1.24 2.38-2.89 4.59-5.11 4.76-4.76 5.73-5.22 10.9-5.22 4.02 0 6.62 0.72 8.81 2.44 3.04 2.39 6.55 7.93 6.55 10.3 0 0.21-0.398 0.394-1.16 0.552 0.0482-5.5e-4 0.0829 2e-3 0.0904 9e-3 0.0338 0.0338-0.0427 0.122 0 0.143 0.0855 0.0427 0.196-0.0302 0.287 0 0.0641 0.0214 0.0827 0.113 0.143 0.144 0.0901 0.0451 0.483-0.0451 0.574 0 0.0604 0.0302 0.0827 0.113 0.143 0.143 0.0855 0.0427 0.201-0.0427 0.287 0 0.0604 0.0302 0.0832 0.113 0.144 0.143 0.0371 0.0185 0.758 0 0.86 0h1.58c0.0478 0 0.109 0.0338 0.143 0 0.0046-5e-3 0-0.395 0-0.43v-0.573c0.0478 0 0.0214-0.101 0-0.144-0.0302-0.0605-0.113-0.0826-0.143-0.143-0.0427-0.0855 0.0427-0.201 0-0.287-0.0302-0.0605-0.113-0.0832-0.144-0.144-0.0214-0.0427 0.0214-0.1 0-0.143-0.0604-0.121-0.226-0.166-0.286-0.287-0.0214-0.0427 0.0338-0.109 0-0.143-0.0338-0.0338-0.11 0.0338-0.144 0s0.0338-0.11 0-0.144-0.109 0.0338-0.143 0 0.0338-0.109 0-0.143-0.11 0.0338-0.144 0 0.0338-0.11 0-0.144c-0.0676-0.0676-0.219 0.0676-0.287 0-0.0338-0.0338 0.0214-0.1 0-0.143-0.0302-0.0605-0.113-0.0828-0.143-0.143-0.0214-0.0428 0.0338-0.11 0-0.144s-0.109 0.0338-0.143 0c-1.38e-4 -1.3e-4 2.17e-4 -0.429 0-0.43-0.0214-0.0641-0.113-0.0832-0.144-0.144-0.0214-0.0427 0.0214-0.1 0-0.143-0.0302-0.0605-0.113-0.0827-0.143-0.143-0.0284-0.0568 0.0293-0.401 0-0.43-0.0338-0.0338-0.11 0.0338-0.144 0-0.0676-0.0676 0.0676-0.219 0-0.287-0.0338-0.0338-0.109 0.0338-0.143 0s0.0338-0.109 0-0.143-0.11 0.0338-0.144 0 0.0338-0.109 0-0.143-0.109 0.0338-0.143 0 0.0338-0.11 0-0.144-0.109 0.0338-0.143 0 0.0338-0.109 0-0.143-0.11 0.0338-0.144 0c-0.0676-0.0676 0.0676-0.219 0-0.287-0.0338-0.0338-0.109 0.0338-0.143 0-0.0676-0.0676 0.0676-0.219 0-0.287-0.0338-0.0338-0.11 0.0338-0.144 0-0.0338-0.0338 0.0214-0.1 0-0.143-0.0302-0.0605-0.113-0.0832-0.143-0.144-0.0427-0.0855 0.0427-0.201 0-0.287-0.0302-0.0605-0.113-0.0826-0.144-0.143-0.0214-0.0428 0.0214-0.1 0-0.143-0.0302-0.0605-0.113-0.0833-0.143-0.144-0.0214-0.0428 0.0338-0.109 0-0.143s-0.109 0.0338-0.143 0 0.0214-0.101 0-0.144c-0.0302-0.0605-0.113-0.0827-0.144-0.143-0.0214-0.0427 0.0214-0.101 0-0.144-0.0302-0.0605-0.113-0.0826-0.143-0.143-0.0214-0.0427 0.0338-0.109 0-0.143-0.0338-0.0338-0.11 0.0338-0.144 0-0.0676-0.0676 0.0676-0.219 0-0.287-0.0338-0.0338-0.109 0.0338-0.143 0-0.0676-0.0676 0.0676-0.219 0-0.287-0.0338-0.0338-0.109 0.0338-0.143 0-0.0338-0.0338 0.0338-0.11 0-0.144s-0.11 0.0338-0.144 0 0.0338-0.109 0-0.143-0.109 0.0338-0.143 0 0.0338-0.109 0-0.143-0.11 0.0338-0.144 0 0.0214-0.101 0-0.144c-0.0302-0.0605-0.113-0.0827-0.143-0.143-0.0214-0.0427 0.0338-0.11 0-0.144-0.0338-0.0338-0.11 0.0338-0.144 0-0.0676-0.0676 0.0427-0.201 0-0.287-0.0302-0.0605-0.113-0.0827-0.143-0.143-0.0427-0.0855 0.0676-0.219 0-0.287-0.0338-0.0338-0.109 0.0338-0.143 0s0.0214-0.1 0-0.143c-0.0302-0.0605-0.113-0.0832-0.144-0.144-0.0214-0.0427 0.0338-0.109 0-0.143-0.0338-0.0338-0.109 0.0338-0.143 0s0.0214-0.1 0-0.143c-0.0302-0.0605-0.113-0.0832-0.144-0.144-0.0214-0.0427 0.0338-0.109 0-0.143s-0.109 0.0338-0.143 0 0.0214-0.101 0-0.144c-0.0302-0.0605-0.113-0.0827-0.144-0.143-0.0214-0.0427 0.0338-0.11 0-0.144s-0.109 0.0338-0.143 0 0.0338-0.109 0-0.143-0.109 0.0338-0.143 0 0.0214-0.1 0-0.143c-0.0302-0.0605-0.0959-0.0959-0.144-0.144-0.0478-0.0478-0.0827-0.113-0.143-0.143-0.0427-0.0214-0.11 0.0338-0.144 0s0.0338-0.11 0-0.144-0.1 0.0214-0.143 0c-0.172-0.086-0.258-0.344-0.43-0.43-0.0427-0.0214-0.101 0.0214-0.144 0-0.0604-0.0302-0.0827-0.113-0.143-0.143-0.0427-0.0214-0.11 0.0338-0.144 0s0.0338-0.11 0-0.144-0.1 0.0214-0.143 0c-0.121-0.0605-0.166-0.226-0.287-0.287-0.0427-0.0214-0.109 0.0338-0.143 0s0.0338-0.109 0-0.143c-0.0676-0.0676-0.219 0.0676-0.287 0-0.0338-0.0338 0.0338-0.11 0-0.144s-0.11 0.0338-0.144 0 0.0338-0.109 0-0.143c-0.0338-0.0338-0.1 0.0214-0.143 0-0.0604-0.0302-0.0827-0.113-0.143-0.143-0.0427-0.0214-0.11 0.0338-0.144 0s0.0338-0.11 0-0.144-0.1 0.0214-0.143 0c-0.0604-0.0302-0.0832-0.113-0.144-0.143-0.0427-0.0214-0.109 0.0338-0.143 0s0.0338-0.11 0-0.144c-0.0717-0.0717-0.358 0.0717-0.43 0-0.0338-0.0338 0.0338-0.109 0-0.143-0.0676-0.0676-0.201 0.0427-0.287 0-0.0605-0.0302-0.0832-0.113-0.144-0.144-0.0427-0.0214-0.1 0.0214-0.143 0-0.0604-0.0302-0.0832-0.113-0.144-0.143-0.0855-0.0427-0.219 0.0676-0.286 0-0.0338-0.0338 0.0338-0.109 0-0.143-0.0676-0.0676-0.219 0.0676-0.287 0-0.0338-0.0338 0.0338-0.11 0-0.144-0.0338-0.0338-0.101 0.0214-0.144 0-0.121-0.0604-0.166-0.226-0.287-0.287-0.0427-0.0214-0.109 0.0338-0.143 0s0.0338-0.109 0-0.143-0.109 0.0338-0.143 0 0.0338-0.109 0-0.143-0.11 0.0338-0.144 0 0.0338-0.11 0-0.144-0.1 0.0214-0.143 0c-0.0604-0.0302-0.0832-0.113-0.144-0.143-0.0427-0.0214-0.109 0.0338-0.143 0s0.0338-0.11 0-0.144-0.101 0.0214-0.144 0c-0.0604-0.0302-0.0827-0.113-0.143-0.143-0.0436-0.0218-0.365 0-0.43 0h-7.74c-0.0484 0-0.242-0.0124-0.353-9e-3z" fill="#e6e6e6"/>
  </g>
 </g>
</svg>
