<svg
   xmlns="http://www.w3.org/2000/svg"
   viewBox="0 -1 36 35" width="64" height="64"
   fill="#fff">
  <path
     d="m 17.168629,33.123634 c -3,0 -4.340833,-3 -6.340833,-5 H 7.1686293 c -3.9999999,-4 -6.99999991,-7 -6.99999991,-11 0,-6 1.12363341,-9.3221205 6.12363291,-13.3221201 2,-2 4.5882307,-2.6439822 6.5882307,-3.64398218 C 9.3411753,4.1575317 8.5094613,4.9438605 6.8090833,8.1835575 c -1.675625,3.1925355 -1.640454,5.9400765 0.359546,7.9400765 2,2 3.9999997,1 5.9999997,-2 2,-2 3.220984,-3.400757 6.119849,-2.880151 3,2 4.161059,5.280908 7.161059,6.280908 2,0 4.719092,-2.400757 4.719092,-5.400757 0,-4.0000005 -3.617956,-7.880152 -7.617956,-11.88015198 6.83894,2.22098408 10.617956,6.88015148 11.617956,10.88015198 1,4 0,9 -3,12 l -4,5 h -4 c -2,2 -4,5 -7,5 z"
/>
</svg>
