
<svg width="512" height="512" viewBox="0 0 512 512" xmlns="http://www.w3.org/2000/svg">
 <g fill="currentColor">
  <path d="m245 23.5c-3.32 0.0808-8.04 2.79-13.3 7.88-8.47 8.14-9.29 11.3-2.05 7.88 7.17-3.36 12-1.67 12 4.18-0.0177 11.8-43.3 140-101 300-23.5 64.7-42.7 124-42.7 131 0 27.1 16.9-2.89 38.5-68.6 12.3-37.1 23.6-68.8 25.3-70.4 0.367-0.362 0.786-0.616 1.25-0.773l31.5-92.1c-1.56-4.09-0.193-9.63 4.73-13.8l51.4-150 22.9 56.7c4.45 9.22 9.71 21.6 15.8 37.2 3.67 9.37 6.94 18.2 9.7 25.9l58.3 144c6.67 13.1 15.4 33.2 23.8 55.6 14.9 39.3 30.7 73.2 35.2 75.4 14.7 7.09 8.76-12.8-35.8-120-71.2-171-119-295-119-308 0-7.19 4.47-9.88 11.1-6.69 6.93 3.34 8.48 2.05 4.14-3.43-3.82-4.83-10.6-7.01-15.1-4.86-4.47 2.15-9.73 0.152-11.7-4.45-0.809-1.89-2.3-2.79-4.29-2.74zm11.7 201c-40.6 0.0255-74.5 40.2-77.8 92.3 2.58-2.7 5.63-5.23 9.11-7.55 7.57-45.1 35.8-77 68.3-77.1 32.2 0.0804 60.2 31.3 68.1 75.8 3.84 2.59 7.16 5.43 9.88 8.47-3.42-52-37.2-91.9-77.7-92zm0.268 59.8c-34.5 0.0331-64.5 13.9-72.7 33.5l-0.418-2e-3c0.0707 0.159 0.143 0.318 0.217 0.477-0.0747 0.173-0.148 0.346-0.219 0.52h0.457c0.0651 0.145 0.132 0.291 0.199 0.436l-0.656-0.436c0-1e-5 -15 27.9-15.9 45.2 4.72 49 39.2 60.8 88.6 61.7 103-7.92 100-59.3 73.5-107-7.56-20.1-38-34.5-73.1-34.5zm1.35 12.8c26.5 0.0401 51 8.29 64.4 21.7l-2.57-0.0176c-13.5 13.4-38.1 21.5-64.6 21.3-25.9-0.218-49.8-8.25-63.3-21.2h1.65c13.4-13.4 38-21.7 64.5-21.8z" />
  <path d="m244 79.1c0.569 10.3 0.702 23.7 0.406 40.4-0.182 10.2-0.513 19.8-0.924 28.2l-0.516 74.3a67.8 96.3 0 0 1 9.8-1.13 67.8 96.3 0 0 1 6.89 0.604c0.236-56 0.843-104 1.77-142l-17.4-0.0742zm8.22 157a67.8 96.3 0 0 0-9.36 0.955l-0.291 41.9a96.3 77.3 0 0 1 11.9-0.688 96.3 77.3 0 0 1 5.09 0.203c-0.00264-14.3 0.0244-28.2 0.0645-41.7a67.8 96.3 0 0 0-7.39-0.621zm-8.37 196c0.73 11.1 1.82 18.4 3.18 20 5.91 6.72 9.23 3.55 11-19.6a96.3 77.3 0 0 1-3.54 0.102 96.3 77.3 0 0 1-10.6-0.508z" stroke-width="8.56"/>
  <g fill-opacity=".567">
   <path d="m225 309c5.41-4.38 13.2-4.01 19.3-1.29 6.8 1.16 13.4-4.86 20-1.54 5.86 2.37 12.6 2.43 18.5 0.0888 3.77-0.391 10.6 1.55 10.2 5.65-3.56 1.37-6.52-2.96-10.2-2.11-4.81 2.8-11 4.96-16.4 2.35-4.99-2.2-10.6-0.92-15.6 0.578-4.59 0.876-8.94-1.31-13-3.11-4.46-0.926-9.06 0.975-12.3 3.95-4.79 2.32-5.92-7.11-0.572-4.56z"/>
   <path d="m209 319c5.15-2.84 11.5-1.22 16.3 1.56 5.32 1.45 10.9-2.77 16 0.174 6.14 2.58 12.2-4.06 18.3-1.1 2.25 4.78-5.02 4.24-7.71 5.63-5.75 2.81-12.1-0.852-18.1 0.234-5.41 0.113-10.1-3.09-15.4-3.93-3.15-0.801-6.3-1.6-9.4-2.56z"/>
   <path d="m256 331c5.39 1.82 9.3-4.09 14.5-3.96 6.15-0.807 11.5-5.5 17.9-4.62 6.67-0.46 13.5-2.12 19-5.98 5.52 2.12-1.77 8.29-5.38 6.55-5.08 0.628-9.07 4.36-14 5.32-4.24 0.412-9.13-0.877-12.6 2.28-5.36 3.37-12.7 4.8-18.4 1.54-0.397-0.326-0.754-0.703-1.05-1.13z"/>
  </g>
  <ellipse cx="256" cy="317" rx="68.1" ry="26.8" fill-opacity=".284"/>
 </g>
</svg>
