<?xml version="1.0" encoding="UTF-8" standalone="no"?>
<!-- Created with Inkscape (http://www.inkscape.org/) -->

<svg
   xmlns:dc="http://purl.org/dc/elements/1.1/"
   xmlns:cc="http://creativecommons.org/ns#"
   xmlns:rdf="http://www.w3.org/1999/02/22-rdf-syntax-ns#"
   xmlns:svg="http://www.w3.org/2000/svg"
   xmlns="http://www.w3.org/2000/svg"
   xmlns:sodipodi="http://sodipodi.sourceforge.net/DTD/sodipodi-0.dtd"
   xmlns:inkscape="http://www.inkscape.org/namespaces/inkscape"
   width="64"
   height="64"
   viewBox="0 0 16.933333 16.933334"
   version="1.1"
   id="svg2582"
   inkscape:version="0.92.4 (5da689c313, 2019-01-14)"
   sodipodi:docname="dvergrtower.svg">
  <defs
     id="defs2576" />
  <sodipodi:namedview
     id="base"
     pagecolor="#ffffff"
     bordercolor="#666666"
     borderopacity="1.0"
     inkscape:pageopacity="0.0"
     inkscape:pageshadow="2"
     inkscape:zoom="5.6"
     inkscape:cx="12.543994"
     inkscape:cy="29.197002"
     inkscape:document-units="mm"
     inkscape:current-layer="layer1"
     showgrid="false"
     units="px"
     inkscape:window-width="1920"
     inkscape:window-height="1111"
     inkscape:window-x="-9"
     inkscape:window-y="-9"
     inkscape:window-maximized="1" />
  <metadata
     id="metadata2579">
    <rdf:RDF>
      <cc:Work
         rdf:about="">
        <dc:format>image/svg+xml</dc:format>
        <dc:type
           rdf:resource="http://purl.org/dc/dcmitype/StillImage" />
        <dc:title></dc:title>
      </cc:Work>
    </rdf:RDF>
  </metadata>
  <g
     inkscape:label="Layer 1"
     inkscape:groupmode="layer"
     id="layer1"
     transform="translate(0,-280.06665)">
    <g
       id="g3660">
      <path
         inkscape:connector-curvature="0"
         id="rect2431"
         d="m 2.5951439,282.91527 c -0.038339,0.0722 -0.1258525,0.0956 -0.2338655,0.11026 -0.017275,0.0839 -0.083506,0.11427 -0.1289121,0.16967 -0.00346,0.94776 -0.00838,1.89692 -0.010839,2.84378 0.1108601,0.0435 0.1602303,0.11197 0.22405,0.18875 -0.00547,0.15013 -0.3179051,0.1301 -0.2270648,0.3653 -0.00593,1.46927 -0.011845,2.93851 -0.017779,4.40776 0.1473977,0.15589 0.2320932,0.46377 0.1397423,0.703 0.023868,0.21939 -0.016068,0.389 -0.1445037,0.50632 -0.00514,1.27557 -0.01028,2.55114 -0.015454,3.82671 4.2032381,-0.016 8.4064759,-0.0323 12.6097139,-0.0482 -0.0042,-1.38375 0.0085,-2.78302 -0.0064,-4.15703 -0.0666,-0.0836 -0.205,-0.24007 -0.07507,-0.34248 0.175004,-0.14442 0.03821,-0.41185 0.08141,-0.61085 0,-1.49045 0,-2.98087 0,-4.47131 -0.05867,-0.0509 -0.104826,-0.16034 -0.136856,-0.20941 0.24119,-0.0171 0.10008,-0.32632 0.136856,-0.49472 -0.0038,-0.76218 0.0077,-1.53849 -0.0059,-2.29182 -0.09145,-0.0819 -0.08129,-0.26899 -0.131081,-0.3796 -4.019417,-0.0386 -8.0388342,-0.0773 -12.0582508,-0.1161 z"
         style="opacity:1;fill:#000000;fill-opacity:1;stroke:none;stroke-width:0.9251014;stroke-miterlimit:4;stroke-dasharray:none;stroke-opacity:1" />
      <g
         transform="matrix(0.97180157,0,0,1,-0.11672618,1.3363473)"
         id="g2490">
        <path
           inkscape:connector-curvature="0"
           id="rect2431-6"
           d="m 3.2589682,282.07089 c -0.596408,0.67965 -0.096582,1.61049 -0.2982762,2.39541 0.036183,0.87069 1.2398635,0.92188 1.8976478,0.86573 1.194794,-0.13247 2.3973505,-0.006 3.5951814,-0.0589 0.5832528,-0.35474 0.3493028,-1.17944 0.3284368,-1.74579 0.078457,-0.57121 0.156814,-1.50447 -0.6752403,-1.47681 -0.6492556,-0.0548 -1.2979728,0.11251 -1.9469579,0.0209 -0.9668707,-0.007 -1.9341828,0.005 -2.9007916,-5.3e-4 z m 4.4503012,3.21273 c -0.536353,-0.0467 -0.4463511,0.11436 0,0 z"
           style="opacity:1;fill:#424242;fill-opacity:1;stroke:none;stroke-width:0.33038336;stroke-miterlimit:4;stroke-dasharray:none;stroke-opacity:1" />
        <path
           inkscape:connector-curvature="0"
           id="path2546"
           d="m 4.7449992,282.77446 c 0.7652936,-0.38046 1.3072169,0.69388 2.0623465,0.47667 0.5543979,-0.25972 1.525753,0.91628 0.572327,0.76821 -0.548309,-0.24353 -1.1867121,-0.20401 -1.6850148,-0.56524 -0.3240416,-0.22009 -0.5970589,-0.50017 -0.9496587,-0.67964 z"
           style="fill:#757575;fill-opacity:1;stroke:none;stroke-width:0.26458332px;stroke-linecap:butt;stroke-linejoin:miter;stroke-opacity:1" />
      </g>
      <g
         transform="matrix(1.0280527,0,0,1,-0.44567307,1.3363473)"
         id="g2486">
        <path
           inkscape:connector-curvature="0"
           id="rect2431-6-3"
           d="m 14.365841,285.14901 c 0.574289,-0.64132 0.05972,-1.52017 0.252667,-2.26117 0.172093,-0.69117 -0.62641,-0.85206 -1.101578,-0.99868 -0.765407,-0.10572 -1.517431,0.23292 -2.292344,0.12234 -0.756254,0.018 -1.5124648,0.0383 -2.2684652,0.0651 -0.4713665,0.81818 -0.01635,1.76715 -0.1855846,2.63897 0.1709797,0.86298 1.2379418,0.48664 1.8487428,0.52041 1.248956,-0.0237 2.497797,-0.0585 3.746562,-0.087 z m -4.5256263,-3.10572 c 0.2553163,0.056 0.5792363,-0.11985 0.1088685,-0.0229 z"
           style="opacity:1;fill:#424242;fill-opacity:1;stroke:none;stroke-width:0.33038336;stroke-miterlimit:4;stroke-dasharray:none;stroke-opacity:1" />
        <path
           inkscape:connector-curvature="0"
           id="path2548"
           d="m 9.3076635,283.36921 c 0.5436727,-0.59619 1.4052385,-0.29945 2.1028275,-0.31675 0.312061,-0.19421 1.389493,-0.0413 0.963193,0.38318 -0.6203,0.0206 -1.24094,-0.005 -1.853439,0.11907 -0.409647,0.0383 -0.8458198,0.0219 -1.2125815,-0.1855 z"
           style="fill:#757575;fill-opacity:1;stroke:none;stroke-width:0.26458332px;stroke-linecap:butt;stroke-linejoin:miter;stroke-opacity:1" />
        <path
           inkscape:connector-curvature="0"
           id="path2550"
           d="m 9.6383927,284.97561 c 0.4608683,0.20651 1.4572673,-0.55016 1.5438413,-0.0653 -0.493945,0.17285 -1.036126,0.17862 -1.5438413,0.0653 z"
           style="fill:#999999;fill-opacity:1;stroke:none;stroke-width:0.26458332px;stroke-linecap:butt;stroke-linejoin:miter;stroke-opacity:1" />
      </g>
      <path
         inkscape:connector-curvature="0"
         id="rect2431-6-9"
         d="m 14.31054,293.5897 c 0.262448,-0.64078 0.440481,-1.68752 -0.220601,-2.11857 -0.767211,-0.28303 -1.581456,0.0657 -2.370693,-0.0459 -0.693016,-0.20787 -1.44182,0.20578 -1.211731,0.9976 -0.130073,0.62926 0.24431,1.47223 1.000924,1.19813 0.932738,-0.0698 1.868377,4.7e-4 2.802101,-0.0312 z m -3.033688,-2.16474 c 0.142188,0.0471 0.417763,-0.0574 0.11665,-0.0238 z"
         style="opacity:1;fill:#424242;fill-opacity:1;stroke:none;stroke-width:0.22432783;stroke-miterlimit:4;stroke-dasharray:none;stroke-opacity:1" />
      <path
         inkscape:connector-curvature="0"
         id="rect2431-6-9-6"
         d="m 6.2171671,289.01105 c 0.2624403,-0.64078 0.4404882,-1.68752 -0.2205847,-2.11856 -0.7672163,-0.28303 -1.5814638,0.0657 -2.3707044,-0.0459 -0.693017,-0.20787 -1.4418202,0.20578 -1.2117325,0.9976 -0.1300729,0.62926 0.2443111,1.47224 1.0009237,1.19813 0.932736,-0.0698 1.8683737,3.8e-4 2.8020979,-0.0312 z m -3.0336884,-2.16474 c 0.1421884,0.0471 0.4177629,-0.0574 0.1166498,-0.0238 z"
         style="opacity:1;fill:#424242;fill-opacity:1;stroke:none;stroke-width:0.22432783;stroke-miterlimit:4;stroke-dasharray:none;stroke-opacity:1" />
      <path
         inkscape:connector-curvature="0"
         id="rect2431-6-9-8-8"
         d="m 2.7192932,289.21817 c -0.2535115,0.63414 -0.4119681,1.67611 0.2468251,2.08803 0.7496569,0.27084 1.5370199,-0.0897 2.305225,0.026 0.7588808,0.20784 1.4684728,-0.32228 1.2021983,-1.13492 0.077285,-0.61668 -0.3347412,-1.30629 -1.022043,-1.03167 -0.9101342,0.0424 -1.8216501,0.0274 -2.7322054,0.0525 z m 3.0023212,2.10106 c -0.1414401,-0.0448 -0.4118351,0.06 -0.1146516,0.0243 z"
         style="opacity:1;fill:#424242;fill-opacity:1;stroke:none;stroke-width:0.22072561;stroke-miterlimit:4;stroke-dasharray:none;stroke-opacity:1" />
      <path
         inkscape:connector-curvature="0"
         id="rect2431-6-9-3"
         d="m 14.354313,288.90302 c 0.273983,-0.63214 0.484624,-1.68221 -0.172683,-2.11884 -0.766772,-0.28343 -1.580689,0.0671 -2.369569,-0.0458 -0.692096,-0.20434 -1.441797,0.20084 -1.23347,0.9942 -0.148099,0.62487 0.21361,1.47797 0.973123,1.20166 0.932893,-0.0698 1.868782,3.5e-4 2.802599,-0.0312 z m -2.982966,-2.16474 c 0.141884,0.0469 0.418413,-0.0577 0.117032,-0.0238 z"
         style="opacity:1;fill:#424242;fill-opacity:1;stroke:none;stroke-width:0.22432783;stroke-miterlimit:4;stroke-dasharray:none;stroke-opacity:1" />
      <path
         inkscape:connector-curvature="0"
         id="rect2431-6-9-8-86"
         d="m 10.863286,289.13698 c -0.265057,0.62531 -0.455538,1.67034 0.198908,2.08788 0.783101,0.27449 1.604247,-0.10362 2.406551,0.0265 0.716523,0.19404 1.345381,-0.33784 1.119391,-1.08339 0.110432,-0.63005 -0.287514,-1.37335 -1.012999,-1.09134 -0.901836,0.0828 -1.808627,0.0149 -2.711851,0.0603 z m 2.953092,2.10106 c -0.14146,-0.0448 -0.411563,0.0604 -0.114553,0.0244 z"
         style="opacity:1;fill:#424242;fill-opacity:1;stroke:none;stroke-width:0.22072561;stroke-miterlimit:4;stroke-dasharray:none;stroke-opacity:1" />
      <path
         inkscape:connector-curvature="0"
         id="rect2431-6-9-3-8"
         d="m 10.255547,289.00913 c 0.273983,-0.63214 0.484624,-1.68221 -0.172683,-2.11884 -0.7667719,-0.28343 -1.580689,0.0671 -2.3695686,-0.0458 -0.692098,-0.20434 -1.4417945,0.20084 -1.2334794,0.9942 -0.1481065,0.62488 0.213617,1.47797 0.973131,1.20166 0.9328935,-0.0698 1.8687821,3.5e-4 2.8026,-0.0312 z m -2.9829648,-2.16474 c 0.1418837,0.0469 0.4184141,-0.0577 0.1170324,-0.0238 z"
         style="opacity:1;fill:#424242;fill-opacity:1;stroke:none;stroke-width:0.22432783;stroke-miterlimit:4;stroke-dasharray:none;stroke-opacity:1" />
      <path
         inkscape:connector-curvature="0"
         id="rect2431-6-9-8-8-7"
         d="m 6.3881537,291.60013 c -1.1227606,-0.20025 -2.2692463,-0.0354 -3.3986251,-0.0596 -0.7860943,0.13734 -0.4324325,0.89865 -0.3952978,1.39622 0.021891,0.85076 0.9030298,0.5988 1.4623386,0.60877 0.7409479,3.9e-4 1.4820975,-0.007 2.2224506,-0.0382 0.6108904,-0.50842 -0.064845,-1.28187 0.1091337,-1.90725 z m -3.755922,1.56958 c 0.072717,-0.19851 -0.1739403,-0.19619 0,0 z"
         style="opacity:1;fill:#424242;fill-opacity:1;stroke:none;stroke-width:0.21375036;stroke-miterlimit:4;stroke-dasharray:none;stroke-opacity:1" />
      <path
         inkscape:connector-curvature="0"
         id="rect2431-6-9-6-2"
         d="m 10.325545,291.34663 c 0.262447,-0.64078 0.440481,-1.68752 -0.220601,-2.11857 -0.767211,-0.28303 -1.5814554,0.0657 -2.3706921,-0.0459 -0.693017,-0.20787 -1.4418202,0.20578 -1.2117325,0.9976 -0.1300735,0.62926 0.244313,1.47225 1.0009246,1.19812 0.9327386,-0.0698 1.8683779,5.6e-4 2.802101,-0.0312 z m -3.0336884,-2.16474 c 0.1421884,0.0471 0.4177629,-0.0574 0.1166498,-0.0238 z"
         style="opacity:1;fill:#424242;fill-opacity:1;stroke:none;stroke-width:0.22432783;stroke-miterlimit:4;stroke-dasharray:none;stroke-opacity:1" />
      <path
         inkscape:connector-curvature="0"
         id="rect2431-6-9-3-9"
         d="m 11.015184,295.67443 c -0.215421,-0.54949 -0.497483,-1.44383 0.126891,-1.81712 0.703471,-0.3255 1.481597,0.11583 2.202926,-0.12092 0.765632,-0.19767 1.459486,0.48914 1.283791,1.23601 0.05521,0.88497 -1.019163,0.80886 -1.611844,0.70989 -0.667192,-0.003 -1.334928,0.002 -2.001764,-0.008 z m 2.820098,-1.88759 c -0.137179,0.0351 -0.408368,-0.0378 -0.113949,-0.0161 z"
         style="opacity:1;fill:#424242;fill-opacity:1;stroke:none;stroke-width:0.20367706;stroke-miterlimit:4;stroke-dasharray:none;stroke-opacity:1" />
      <path
         inkscape:connector-curvature="0"
         id="rect2431-6-9-3-9-9"
         d="m 2.9149555,295.71836 c -0.2154202,-0.54949 -0.4974858,-1.44382 0.1268865,-1.81712 0.703472,-0.3255 1.4815974,0.11583 2.2029272,-0.12092 0.7656324,-0.19767 1.4594838,0.48914 1.2837887,1.23601 0.055214,0.88497 -1.0191616,0.80886 -1.6118424,0.70989 -0.6671892,-0.003 -1.3349319,0.002 -2.00176,-0.008 z m 2.820098,-1.88759 c -0.137179,0.0351 -0.4083736,-0.0378 -0.113951,-0.0161 z"
         style="opacity:1;fill:#424242;fill-opacity:1;stroke:none;stroke-width:0.20367706;stroke-miterlimit:4;stroke-dasharray:none;stroke-opacity:1" />
      <path
         inkscape:connector-curvature="0"
         id="rect2431-6-37"
         d="m 9.9559813,280.12504 c -0.9689331,4e-5 -1.9378662,5e-4 -2.9067993,5.2e-4 -0.3710909,0.80638 -0.758016,1.61673 -1.2180446,2.37082 -0.6483569,0.74809 0.6622494,0.57994 0.9717407,0.98703 0.6395106,-0.13076 1.2813704,-0.21032 1.9613356,-0.1461 0.7708882,2.6e-4 1.5417923,-0.002 2.3126293,-0.0115 0.278243,-0.51796 -0.502984,-1.03851 -0.571367,-1.61726 -0.287996,-0.48692 -0.471796,-1.02854 -0.5494947,-1.58355 z m -4.0245604,3.01532 c -0.2257949,-0.006 -0.088925,0.0755 0,0 z m 3.9992389,0.19327 c -0.6603993,0.0715 0.8244002,0.0166 0,0 z"
         style="opacity:1;fill:#424242;fill-opacity:1;stroke:none;stroke-width:0.32569191;stroke-miterlimit:4;stroke-dasharray:none;stroke-opacity:1" />
      <path
         inkscape:connector-curvature="0"
         id="path2546-8"
         d="m 5.8311374,282.49638 c 0.2817163,-0.85309 1.5891206,-0.33938 1.9052379,-1.22584 0.2683406,-0.33512 1.4256702,-0.15268 1.0190112,0.20585 -0.7657383,0.30666 -1.3720683,0.99663 -2.2741766,0.88852 -0.2175185,0.0397 -0.4329293,0.0899 -0.6500725,0.13147 z"
         style="fill:#757575;fill-opacity:1;stroke:none;stroke-width:0.26082623px;stroke-linecap:butt;stroke-linejoin:miter;stroke-opacity:1" />
      <path
         inkscape:connector-curvature="0"
         id="path2544-03"
         d="m 9.4196935,281.77537 c -0.02063,0.37884 -0.785668,0.79946 -0.436926,1.10884 0.105919,-0.45823 1.5107345,-0.7536 0.608098,-1.17371 -0.01941,-0.10634 -0.171562,0.12815 -0.171172,0.0649 z"
         style="fill:#757575;fill-opacity:1;stroke:none;stroke-width:0.26458332px;stroke-linecap:butt;stroke-linejoin:miter;stroke-opacity:1" />
      <path
         inkscape:connector-curvature="0"
         id="path2544-2"
         d="m 3.9653222,286.90636 c -0.02063,0.37884 -0.785668,0.79946 -0.436926,1.10884 0.105919,-0.45823 1.510734,-0.7536 0.608098,-1.17371 -0.01941,-0.10634 -0.171562,0.12815 -0.171172,0.0649 z"
         style="fill:#757575;fill-opacity:1;stroke:none;stroke-width:0.26458332px;stroke-linecap:butt;stroke-linejoin:miter;stroke-opacity:1" />
      <path
         inkscape:connector-curvature="0"
         id="path2544-4"
         d="m 12.224345,292.18788 c -0.360529,0.11816 -1.029968,-0.44224 -1.191807,-0.005 0.465446,-0.0675 1.250189,1.13457 1.31434,0.14103 0.09206,-0.0567 -0.181646,-0.11341 -0.122561,-0.13598 z"
         style="fill:#757575;fill-opacity:1;stroke:none;stroke-width:0.26458332px;stroke-linecap:butt;stroke-linejoin:miter;stroke-opacity:1" />
      <path
         inkscape:connector-curvature="0"
         id="path2542-3"
         d="m 8.3286686,287.43393 c 0.419118,0.14115 1.367597,0.72502 1.112273,0.99106 -0.482551,-0.50762 -1.174127,-0.21333 -1.719977,-0.12705 -0.448769,-0.27126 0.02108,-0.69481 0.383957,-0.42335 0.193704,-0.0388 0.232642,-0.27726 0.223747,-0.44066 z"
         style="fill:#757575;fill-opacity:1;stroke:none;stroke-width:0.26458332px;stroke-linecap:butt;stroke-linejoin:miter;stroke-opacity:1" />
      <path
         inkscape:connector-curvature="0"
         id="path2542-1"
         d="m 14.012092,287.8347 c -0.252269,-0.15493 -0.823165,-0.7958 -0.669484,-1.08781 0.290451,0.55718 0.706714,0.23416 1.035265,0.13945 0.270116,0.29774 -0.01269,0.76264 -0.231106,0.46468 -0.116592,0.0426 -0.140029,0.30433 -0.134675,0.48368 z"
         style="fill:#757575;fill-opacity:1;stroke:none;stroke-width:0.21505676px;stroke-linecap:butt;stroke-linejoin:miter;stroke-opacity:1" />
      <path
         inkscape:connector-curvature="0"
         id="path2544-0-0"
         d="m 5.6021244,289.33237 c 0.181796,0.24293 0.106987,1.1077 0.391735,1.01296 -0.18971,-0.35876 0.186243,-1.66166 -0.360372,-1.18897 -0.06042,-0.048 1.43e-4,0.21414 -0.03135,0.17603 z"
         style="fill:#757575;fill-opacity:1;stroke:none;stroke-width:0.2089725px;stroke-linecap:butt;stroke-linejoin:miter;stroke-opacity:1" />
      <path
         inkscape:connector-curvature="0"
         id="path2544-0-3"
         d="m 13.443547,292.34382 c 0.181796,-0.13282 0.106987,-0.60561 0.391735,-0.55381 -0.18971,0.19614 0.186243,0.90847 -0.360372,0.65004 -0.06042,0.0262 1.43e-4,-0.11708 -0.03135,-0.0962 z"
         style="fill:#757575;fill-opacity:1;stroke:none;stroke-width:0.15451591px;stroke-linecap:butt;stroke-linejoin:miter;stroke-opacity:1" />
      <path
         inkscape:connector-curvature="0"
         id="path2544"
         d="m 4.1695498,293.34656 c -0.02063,-0.26158 -0.785668,-0.55202 -0.436926,-0.76564 0.105919,0.3164 1.510734,0.52034 0.608098,0.81043 -0.01941,0.0734 -0.171562,-0.0884 -0.171172,-0.0449 z"
         style="fill:#757575;fill-opacity:1;stroke:none;stroke-width:0.21985802px;stroke-linecap:butt;stroke-linejoin:miter;stroke-opacity:1" />
      <path
         inkscape:connector-curvature="0"
         id="path2534"
         d="m 4.2521823,294.17008 c 0.493849,-0.19112 1.454065,0.32759 1.365201,0.7341 -0.53368,0.0513 0.391004,0.62132 0.327922,0.20014 0.126801,-0.36981 -0.346022,-1.04028 -1.072963,-1.12217 -0.269918,-0.0199 -0.532765,0.0351 -0.62015,0.1879 z"
         style="fill:#757575;fill-opacity:1;stroke:none;stroke-width:0.2023004px;stroke-linecap:butt;stroke-linejoin:miter;stroke-opacity:1" />
      <path
         inkscape:connector-curvature="0"
         id="path2534-4"
         d="m 12.254218,289.67729 c -0.316291,-0.19112 -0.931273,0.32759 -0.87436,0.7341 0.341802,0.0513 -0.250422,0.62132 -0.210021,0.20014 -0.08122,-0.36981 0.221614,-1.04028 0.687193,-1.12217 0.172871,-0.0199 0.341215,0.0351 0.397182,0.1879 z"
         style="fill:#757575;fill-opacity:1;stroke:none;stroke-width:0.16189872px;stroke-linecap:butt;stroke-linejoin:miter;stroke-opacity:1" />
      <path
         inkscape:connector-curvature="0"
         id="path2536"
         d="m 11.796057,287.23723 c -0.683178,0.13681 0.128351,0.95037 -0.538495,0.92477 -0.152982,-0.26746 -0.455863,-0.95542 0.214011,-0.956 0.108936,0.007 0.216112,0.023 0.324484,0.0312 z"
         style="fill:#757575;fill-opacity:1;stroke:none;stroke-width:0.20958328px;stroke-linecap:butt;stroke-linejoin:miter;stroke-opacity:1" />
      <path
         inkscape:connector-curvature="0"
         id="path2542"
         d="m 12.517431,294.69734 c 0.419118,0.14115 1.367597,0.72502 1.112273,0.99106 -0.482551,-0.50762 -1.174127,-0.21333 -1.719977,-0.12705 -0.448769,-0.27126 0.02108,-0.69481 0.383957,-0.42335 0.193704,-0.0388 0.232642,-0.27726 0.223747,-0.44066 z"
         style="fill:#757575;fill-opacity:1;stroke:none;stroke-width:0.26458332px;stroke-linecap:butt;stroke-linejoin:miter;stroke-opacity:1" />
      <path
         inkscape:connector-curvature="0"
         id="path2534-9"
         d="m 3.9707245,290.11892 c 0.493849,-0.15621 1.454065,0.26774 1.365201,0.59999 -0.53368,0.0419 0.391004,0.50783 0.327922,0.16358 0.126801,-0.30225 -0.346022,-0.85024 -1.072963,-0.91717 -0.269918,-0.0163 -0.532765,0.0287 -0.62015,0.15357 z"
         style="fill:#757575;fill-opacity:1;stroke:none;stroke-width:0.18289179px;stroke-linecap:butt;stroke-linejoin:miter;stroke-opacity:1" />
      <g
         transform="matrix(-1.1757507,0,0,1.179748,-10.058212,-50.610974)"
         id="g2780">
        <path
           inkscape:connector-curvature="0"
           id="path2756"
           d="m -19.702107,284.00732 c -0.01851,0.8246 0.05305,1.65731 -0.07723,2.4742 -0.14825,0.3705 0.0478,0.74552 0.07726,1.11696 -0.03065,0.43145 0.06842,0.88211 -0.06363,1.29853 -8.35e-4,0.39591 -0.503882,0.167 -0.739824,0.0941 0.126133,-0.16254 0.09669,-0.55912 0.09725,-0.82933 -0.01028,-0.31558 -0.02945,-0.62781 -0.06758,-0.94435 -0.05263,-0.39745 -0.0358,-0.80106 -0.03712,-1.20406 0.07407,-0.37942 0.09365,-0.77864 0.1308,-1.16623 0,-0.27967 0,-0.55935 0,-0.83902 0.203246,-0.0718 0.495751,-0.13271 0.680077,-7.6e-4 z"
           style="fill:#289ed7;fill-opacity:1;stroke:none;stroke-width:0.16989137px;stroke-linecap:butt;stroke-linejoin:miter;stroke-opacity:1" />
        <path
           inkscape:connector-curvature="0"
           id="path2756-6"
           d="m -18.636421,283.98186 c 0.0077,0.61296 -0.01506,1.2292 0.01068,1.84011 0.01596,0.29399 0.05801,0.58071 0.123631,0.86293 0.04961,0.38131 -0.192326,0.74127 -0.132714,1.12845 0.01717,0.30768 -0.04378,0.63326 0.0331,0.92883 -0.04136,0.46326 0.435029,0.37602 0.736055,0.25473 0.28974,-0.006 -0.119867,-0.25623 0.0024,-0.46223 -6.74e-4,-0.2848 -0.0096,-0.57142 0.02935,-0.84938 0.01591,-0.45948 0.120272,-0.91545 0.08525,-1.3782 -0.01709,-0.40014 -0.06455,-0.79741 -0.123016,-1.198 -0.04151,-0.37211 -0.0108,-0.75114 -0.02026,-1.12648 -0.226707,-0.0695 -0.535256,-0.13733 -0.744521,-7.6e-4 z"
           style="fill:#289ed7;fill-opacity:1;stroke:none;stroke-width:0.17775379px;stroke-linecap:butt;stroke-linejoin:miter;stroke-opacity:1" />
        <path
           inkscape:connector-curvature="0"
           id="rect2775"
           d="m -20.847748,283.31015 c 1.161489,0 2.322979,0 3.484468,0 0,0.28742 0,0.57484 0,0.86226 -1.161489,0 -2.322979,0 -3.484468,0 0,-0.28742 0,-0.57484 0,-0.86226 z"
           style="opacity:1;fill:#c87137;fill-opacity:1;stroke:none;stroke-width:0.83499998;stroke-miterlimit:4;stroke-dasharray:none;stroke-opacity:1" />
      </g>
      <path
         inkscape:connector-curvature="0"
         id="rect2431-6-37-8"
         d="m 14.172199,280.21023 c -0.529109,4e-5 -1.058218,5e-4 -1.587327,5.2e-4 -0.202643,0.80638 -0.413933,1.61673 -0.665142,2.37082 -0.354051,0.74809 0.361637,0.57994 0.530642,0.98703 0.34922,-0.13076 0.699723,-0.21032 1.071034,-0.1461 0.420962,2.6e-4 0.841932,-0.002 1.262866,-0.0115 0.151942,-0.51796 -0.274666,-1.03851 -0.312008,-1.61726 -0.157267,-0.48692 -0.257636,-1.02854 -0.300065,-1.58355 z m -2.197707,3.01532 c -0.123301,-0.006 -0.04856,0.0755 0,0 z m 2.18388,0.19327 c -0.360627,0.0715 0.450183,0.0166 0,0 z"
         style="opacity:1;fill:#424242;fill-opacity:1;stroke:none;stroke-width:0.24067594;stroke-miterlimit:4;stroke-dasharray:none;stroke-opacity:1" />
      <path
         inkscape:connector-curvature="0"
         id="rect2431-6-37-8-3"
         d="m 4.4300733,280.17988 c -0.529109,4e-5 -1.058218,5e-4 -1.587327,5.2e-4 -0.202643,0.80638 -0.413933,1.61673 -0.665142,2.37082 -0.354051,0.74809 0.361637,0.57994 0.530642,0.98703 0.34922,-0.13076 0.699723,-0.21032 1.071034,-0.1461 0.420962,2.6e-4 0.841932,-0.002 1.262866,-0.0115 0.151942,-0.51796 -0.274666,-1.03851 -0.312008,-1.61726 -0.157267,-0.48692 -0.257636,-1.02854 -0.300065,-1.58355 z m -2.197707,3.01532 c -0.123301,-0.006 -0.04856,0.0755 0,0 z m 2.18388,0.19327 c -0.360627,0.0715 0.450183,0.0166 0,0 z"
         style="opacity:1;fill:#424242;fill-opacity:1;stroke:none;stroke-width:0.24067596;stroke-miterlimit:4;stroke-dasharray:none;stroke-opacity:1" />
      <path
         inkscape:connector-curvature="0"
         id="path2544-0-3-4"
         d="m 13.01727,282.63085 c 0.460872,-0.38602 0.271223,-1.76009 0.993091,-1.60955 -0.480936,0.57005 0.472147,2.64031 -0.913583,1.88923 -0.153171,0.0761 3.63e-4,-0.34028 -0.07948,-0.27959 z"
         style="fill:#757575;fill-opacity:1;stroke:none;stroke-width:0.4194141px;stroke-linecap:butt;stroke-linejoin:miter;stroke-opacity:1" />
      <path
         inkscape:connector-curvature="0"
         id="path2544-03-9"
         d="m 3.3722444,281.98142 c 0.038638,-0.34783 1.4714766,-0.73402 0.8183182,-1.01807 -0.1983756,0.42072 -2.8294525,0.69191 -1.138906,1.07763 0.036353,0.0976 0.3213183,-0.11766 0.3205878,-0.0596 z"
         style="fill:#757575;fill-opacity:1;stroke:none;stroke-width:0.34695485px;stroke-linecap:butt;stroke-linejoin:miter;stroke-opacity:1" />
      <path
         inkscape:connector-curvature="0"
         id="path2534-9-5"
         d="m 8.6634442,289.42845 c 0.493849,-0.15621 1.4540648,0.26774 1.3652008,0.59999 -0.5336797,0.0419 0.391004,0.50783 0.327922,0.16358 0.126801,-0.30225 -0.346022,-0.85024 -1.0729628,-0.91717 -0.269918,-0.0163 -0.532765,0.0287 -0.62015,0.15357 z"
         style="fill:#757575;fill-opacity:1;stroke:none;stroke-width:0.18289179px;stroke-linecap:butt;stroke-linejoin:miter;stroke-opacity:1" />
      <path
         inkscape:connector-curvature="0"
         id="path2544-4-5"
         d="m 7.5377014,290.82122 c -0.2136239,-0.0875 -0.6102859,0.32765 -0.7061802,0.004 0.2757902,0.05 0.7407732,-0.84059 0.7787845,-0.10449 0.054548,0.042 -0.1076305,0.084 -0.072621,0.10075 z"
         style="fill:#757575;fill-opacity:1;stroke:none;stroke-width:0.17530501px;stroke-linecap:butt;stroke-linejoin:miter;stroke-opacity:1" />
      <path
         inkscape:connector-curvature="0"
         id="path3490"
         d="m 8.071579,295.92842 h 2.532673 l 1.266336,-2.5039 -1.841943,-3.39608 H 7.208168 l -1.726822,3.25218 1.467799,2.59023 z"
         style="fill:#000000;stroke:none;stroke-width:0.22792889px;stroke-linecap:butt;stroke-linejoin:miter;stroke-opacity:1;fill-opacity:1" />
      <path
         inkscape:connector-curvature="0"
         id="path3490-6"
         d="m 8.2009772,295.58188 h 1.9802568 l 0.990129,-2.16575 -1.4401864,-2.93745 h -2.205287 l -1.3501752,2.81298 1.1476492,2.24042 z"
         style="fill:#276062;fill-opacity:1;stroke:none;stroke-width:0.1874419px;stroke-linecap:butt;stroke-linejoin:miter;stroke-opacity:1" />
      <rect
         y="295.10431"
         x="5.9453053"
         height="0.84328955"
         width="5.6475105"
         id="rect3510"
         style="opacity:1;fill:#202020;fill-opacity:1;stroke:none;stroke-width:0.83499998;stroke-miterlimit:4;stroke-dasharray:none;stroke-opacity:1" />
      <rect
         y="294.39465"
         x="6.8891001"
         height="0.54261136"
         width="3.6338685"
         id="rect3510-7"
         style="opacity:1;fill:#3a3a3a;fill-opacity:1;stroke:none;stroke-width:0.53727746;stroke-miterlimit:4;stroke-dasharray:none;stroke-opacity:1" />
      <g
         transform="matrix(1.195277,0,0,1.195277,27.578802,-54.891467)"
         id="g2780-4">
        <path
           inkscape:connector-curvature="0"
           id="path2756-5"
           d="m -19.702107,284.00732 c -0.0073,0.62501 0.01518,1.25181 -0.0124,1.87568 -0.01271,0.29011 -0.05748,0.57378 -0.114425,0.85614 -0.03269,0.2554 0.08494,0.49928 0.118553,0.75036 0.01926,0.39732 0.0029,0.79868 0.0083,1.19755 -0.09372,0.1726 -0.01638,0.5148 -0.300565,0.42227 -0.191997,0.0222 -0.36041,-0.0763 -0.536517,-0.14066 0.211543,-0.13237 0.100941,-0.43275 0.130789,-0.64113 0.01793,-0.26875 -0.03294,-0.52587 -0.02983,-0.79281 -0.03652,-0.24111 -0.04328,-0.48465 -0.07699,-0.7235 0.0057,-0.26588 1.84e-4,-0.53192 0.0022,-0.79789 0.09772,-0.21499 0.01971,-0.45784 0.08338,-0.68186 0.03821,-0.20048 0.05593,-0.40193 0.04742,-0.60611 0,-0.23909 0,-0.47819 0,-0.71728 0.204195,-0.0678 0.49486,-0.13915 0.680077,-7.6e-4 z"
           style="fill:#289ed7;fill-opacity:1;stroke:none;stroke-width:0.16989137px;stroke-linecap:butt;stroke-linejoin:miter;stroke-opacity:1" />
        <path
           inkscape:connector-curvature="0"
           id="path2756-6-8"
           d="m -18.636421,283.98186 c 5.92e-4,0.59815 -8.63e-4,1.19629 0,1.79444 0.03907,0.29166 0.0489,0.58782 0.126539,0.86863 0.07862,0.30141 -0.104966,0.58472 -0.121055,0.88254 -0.01258,0.37731 -0.0019,0.75616 -0.0055,1.13412 0.09343,0.19729 0.04629,0.5201 0.358894,0.42269 0.196945,0.0131 0.378918,-0.082 0.557476,-0.14108 -0.235055,-0.14258 -0.109948,-0.47977 -0.143228,-0.71049 -0.01154,-0.26212 0.03499,-0.50978 0.04,-0.77098 0.05001,-0.38325 0.0905,-0.76757 0.07466,-1.15458 0.03854,-0.25124 -0.08325,-0.47597 -0.05729,-0.72635 -0.01146,-0.27385 -0.110691,-0.53749 -0.08599,-0.8133 0,-0.26163 0,-0.52325 0,-0.78488 -0.226692,-0.0695 -0.535303,-0.13739 -0.744521,-7.6e-4 z"
           style="fill:#289ed7;fill-opacity:1;stroke:none;stroke-width:0.17775379px;stroke-linecap:butt;stroke-linejoin:miter;stroke-opacity:1" />
        <path
           inkscape:connector-curvature="0"
           id="rect2775-9"
           d="m -20.847748,283.31015 c 1.161489,0 2.322979,0 3.484468,0 0,0.28742 0,0.57484 0,0.86226 -1.161489,0 -2.322979,0 -3.484468,0 0,-0.28742 0,-0.57484 0,-0.86226 z"
           style="opacity:1;fill:#c87137;fill-opacity:1;stroke:none;stroke-width:0.83499998;stroke-miterlimit:4;stroke-dasharray:none;stroke-opacity:1" />
      </g>
      <rect
         y="293.90216"
         x="7.0143824"
         height="0.33380705"
         width="3.4250641"
         id="rect3510-7-4"
         style="opacity:1;fill:#424b5a;fill-opacity:1;stroke:none;stroke-width:0.40912092;stroke-miterlimit:4;stroke-dasharray:none;stroke-opacity:1" />
    </g>
  </g>
</svg>
