<?xml version="1.0" encoding="UTF-8"?>
<!-- Created with Inkscape (http://www.inkscape.org/) -->
<svg width="64mm" height="64mm" version="1.1" viewBox="0 0 64 64" xmlns="http://www.w3.org/2000/svg" xmlns:cc="http://creativecommons.org/ns#" xmlns:dc="http://purl.org/dc/elements/1.1/" xmlns:rdf="http://www.w3.org/1999/02/22-rdf-syntax-ns#">
 <metadata>
  <rdf:RDF>
   <cc:Work rdf:about="">
    <dc:format>image/svg+xml</dc:format>
    <dc:type rdf:resource="http://purl.org/dc/dcmitype/StillImage"/>
    <dc:title/>
   </cc:Work>
  </rdf:RDF>
 </metadata>
 <g transform="translate(0,-233)">
  <path d="m27.3 293c-3.64-1.33-7.42-2.29-11-3.87-4.17-2.05-6.01-7.03-5.32-11.4 0.842-7.15 5.24-13.1 9.34-18.7 1.57-2.56 3.94-5.14 3.78-8.33-0.544-3.22-4.88-4.66-4.58-8.13 0.94-2.47 3.94-3.03 6.18-3.85 3.14-0.772 6.32-2.07 9.6-1.78 2.59 0.647 4.06 3.63 3.07 6.11-0.994 3.59-2.56 7.74-0.287 11.2 2.42 3.73 6.7 5.72 9.08 9.5 3.21 4.31 4.76 9.5 6.85 14.4-2.27 4.21-3.96 9.03-8.04 11.9-3.51 2.36-7.56 4.35-11.9 4.48-2.36-3.4e-4 -4.65-0.665-6.86-1.41z" fill="#fff" stroke-width="1.36"/>
  <g>
   <path d="m28.1 240c0.0057-0.769 1.89-0.913 0.393-0.55 1.76-0.971 0.77 2.02 3.2 1.38 1.18 1.73-2.2 0.934-2.53 2.44-2.3 3e-3 -4.68 0.139-6.94-0.0658-0.276-2.34 4.1 0.125 3.52-2.42 0.776-0.0334 2.03 0.155 2.36-0.785zm0.314 1.57c0.767 1.2 0.93-1.38 0 0z" fill="#dadada" stroke-width="1.26"/>
   <path d="m28.4 242c0.825-1.43 0.93 0.916-0.0391 0.196z" fill="#b6b6b6" stroke-width="1.26"/>
   <path d="m48.9 269c2.66-0.24 2.35 3.55 3.72 5.1 1.25 1.93 1.64 4.38 0.0848 6.27-1.4 2-1.92 4.56-3.59 6.35-1.8 0.927-2.53 2.93-4.12 3.98-1.75 1.04-3.72 1.31-5.62 1.78-1.5 1.25-2.37 2.29-4.37 1.22-1.66-0.017-3.52 2.65-4.5-0.258 0.253-3.15-5.68 0.534-4.29-2.64 1.85-1.02 4.36 1.22 5.75-1.14 0.952-2.6 3.27-4.16 5.16-6.06 2.65-2.52 5.04-5.33 7.77-7.76 1.86-0.75 5-1.84 3.48-4.46-0.358-0.857-0.326-1.84 0.519-2.38zm-3.19 21.8 0.0175-6e-3z" fill="#b6b6b6" stroke-width="1.4"/>
   <path d="m37.9 242c1.44-2.06 2.35 2.56 0.767 3.12-0.147 2.29-1.9 4.17-1.77 6.41-0.0775 2.19 1.48 3.83 1.55 5.98 0.999 2.18 4.39 1.38 5.06 4.18 1 2.36 4.75 2.53 4.92 5.33-0.864 1.18-1.01 2.17-0.486 3.38-0.966 1.63 1.52 4.72-1.82 5.18-2.89 1.29-4.56 4.08-6.88 6.1-1.82 1.82-3.65 3.63-5.47 5.44-0.547 2.68-3.08 3.42-5.37 2.72-1.75 0.841-3.92 2.11-5.42 0.322-2.37 0.38-3.51-1.71-4.91-3.02-0.803-2.47 1.04-5.11 2.29-7.29 1.18-1.84 2.42-5.09 5.03-2.74 1.87-1.78 1.34-5.47 4.76-5.72 2.69-0.867 6.3-3.24 4.6-6.5-0.789-2.53-1-4.89-2.98-6.84-1.15-1.2-4.33-3.32-1.05-4.16 1.26-0.518 4.36 1.42 3.94-1.08-2.01-2.44-4.9 1.7-6.57-0.763-1.69-2.4 1.57-3.61 3.44-3.28 2.63-1.01 4.79-3.32 5.58-6.02 0.173-0.325 0.443-0.61 0.788-0.752zm-14.1 49.2h0.296zm16.2-28.2c0.772-1.6-2.85-5.47-3.02-2.2 0.168 1.49 1.46 2.8 3.02 2.2zm2.04-3.81 0.103 0.0343zm-3.97-4.69v0.244zm0-5.45v-0.296z" fill="#dadada" stroke-width="1.28"/>
  </g>
 </g>
</svg>
