<?xml version="1.0" encoding="UTF-8"?>
<svg width="640" height="640" version="1.1" viewBox="0 0 640 640" xmlns="http://www.w3.org/2000/svg" xmlns:cc="http://creativecommons.org/ns#" xmlns:dc="http://purl.org/dc/elements/1.1/" xmlns:rdf="http://www.w3.org/1999/02/22-rdf-syntax-ns#">
 <metadata>
  <rdf:RDF>
   <cc:Work rdf:about="">
    <dc:format>image/svg+xml</dc:format>
    <dc:type rdf:resource="http://purl.org/dc/dcmitype/StillImage"/>
    <dc:title/>
   </cc:Work>
  </rdf:RDF>
 </metadata>
 <path d="m318 152c7.93 0 72.8 5.22 72.8-39l62.7-16.6c16.4-4.36 33.3 6.7 45.3 18.7l119 119c12.5 12.5 12.5 32.8 0 45.3l-50.7 50.7c-12.5 12.5-32.8 12.5-45.3 0l-90.1-47.3 92.8 275c2.4 21.4-11.4 54.4-46.7 54.5l-334 1.27c-35.3 0.134-33.7-37.9-30.4-56.5l64.6-256-35.5 38.4c-12 13-55.8 2.91-68.3-9.59l-50.6-50.8c-12.5-12.5-12.5-32.8 0-45.3l119-119c12-12 28.8-22.9 45.3-18.7l55.9 14.2c0 44.2 62.9 43.4 75.6 41.4z" fill="#fff"/>
 <path d="m467 103c-65.7 156-84.9 173-131 261-32.4 61.3-55 47.6-130 162-16.1 24.4-24.6 60.7-39.2 87.4l312-1.18c35.3-0.134 49.1-33.1 46.7-54.5l-69-260 66.4 32.4c12.5 12.5 32.8 12.5 45.3 0l50.7-50.7c4.2-4.2 6.99-9.29 8.36-14.7-56.5-50-104-110-159-161z" fill="#e6e6e6"/>
</svg>
