<svg width="64" height="64" fill="#fff" viewBox="0 0 17 17" xmlns="http://www.w3.org/2000/svg">
 <g transform="matrix(.9128 0 0 .9128 .42598 1.3672)">
  <circle cx="8.7819" cy="7.9163" r="2.4423" stroke-width="1.1247"/>
  <path d="m7.563 2.6279 3.1434-0.027072-0.37617-2.6087s0.13586-0.59344-0.08005-0.86056c-0.19813-0.24511-0.78496-0.56427-1.0996-0.58235-0.37547-0.021578-0.46234 0.02088-0.58578 0.37613-0.46358 1.3341-0.74653 1.7897-0.74653 1.7897z"/>
  <path d="m13.84 10.168 2.7373-0.02707-0.51154-2.6358s0.05464-1.0808-0.16127-1.3479c-0.19813-0.24512-0.05397-0.91623-0.82888-0.90724-0.70035 0.30331-0.28176 1.0697-0.53164 1.3508-0.25386 0.28557-0.42164 1.9521-0.42164 1.9521-0.24184 1.1103-0.22428 0.68866-0.28228 1.6151z"/>
  <path d="m1.2291 10.064 2.8726 1e-6 -0.2408-1.607s-0.1078-1.9742-0.32372-2.2413c-0.19813-0.24511-0.51422-0.75379-0.82888-0.77187-0.37546-0.021579-0.68787 1.2322-0.93774 1.5132-0.25386 0.28557-0.31335 1.8709-0.31335 1.8709z"/>
  <path d="m7.3861 17.136 2.5207 0.1083-0.13251-2.2568s0.027567-0.34978-0.18835-0.61689c-0.19813-0.24511-0.8659-2.2146-1.0184-1.5841-0.37547-0.02158-0.6608 0.41994-0.91067 0.70102-0.25386 0.28557-0.23213 1.519-0.23213 1.519z"/>
 </g>
</svg>
