<svg xmlns="http://www.w3.org/2000/svg" width="64" height="64" viewBox="0 0 14 14" fill="#fff">
  <g transform="translate(-118.716,-110.21833)">
    <path d="m 123.05904,123.11728 c -1.40671,-0.16414 -2.62489,-0.3657 -2.70708,-0.44789 -0.14581,-0.14581 0.49217,-2.0518 1.16117,-3.46907 0.18957,-0.4016 0.25747,-1.01401 0.15686,-1.41485 -0.15175,-0.60464 -0.27671,-0.68184 -0.86479,-0.53424 -0.67829,0.17024 -0.67648,0.16334 0.13638,-0.52064 0.73726,-0.62037 0.81,-0.80946 0.69251,-1.80038 -0.12773,-1.07726 -0.0927,-1.13763 1.29392,-2.23169 1.53356,-1.20997 2.44867,-1.39418 3.61471,-0.7276 0.3638,0.20796 1.01865,0.38416 1.45521,0.39155 1.02507,0.0173 1.33419,0.24056 1.54898,1.11856 0.0964,0.39401 0.47191,1.03647 0.83449,1.4277 0.77128,0.83223 0.81126,1.04828 0.23491,1.26944 -0.24674,0.0947 -0.35968,0.33129 -0.26987,0.56534 0.0849,0.22137 -0.0317,0.86785 -0.25931,1.43661 -0.39952,0.9985 -0.38865,1.0901 0.31591,2.66005 0.55949,1.24672 0.65178,1.67408 0.39569,1.83235 -0.18369,0.11353 -1.27281,0.28471 -2.42025,0.38041 -1.14745,0.0957 -2.23827,0.21647 -2.42404,0.2684 -0.18577,0.0519 -1.4887,-0.0399 -2.8954,-0.20405 z m 4.25941,-5.43252 c 0.71334,-1.00179 0.69022,-1.40222 -0.13779,-2.38625 -1.22058,-1.45058 -3.14562,-0.85176 -3.4539,1.07439 -0.20788,1.29887 0.54497,2.08031 2.00419,2.08031 0.84631,0 1.14236,-0.14331 1.5875,-0.76845 z"/>
  </g>
</svg>
